<?xml version="1.0" encoding="utf-8"?>
<!-- Generator: Adobe Illustrator 25.4.0, SVG Export Plug-In . SVG Version: 6.00 Build 0)  -->
<svg version="1.1" id="Livello_1" xmlns="http://www.w3.org/2000/svg" xmlns:xlink="http://www.w3.org/1999/xlink" x="0px" y="0px"
	 viewBox="0 0 576 512" style="enable-background:new 0 0 576 512;" xml:space="preserve">
<style type="text/css">
	.st0{fill:#FF385C;}
	.st1{fill:#FF385C;stroke:#FFFFFF;stroke-width:10;stroke-miterlimit:10;}
</style>
<g>
	<g>
		<path class="st0" d="M372.8,317.8v-19.1h-51.4c-6.5,0-11.4-1.5-14.6-4.4s-4.9-6.9-4.9-12c0-1.3,0.2-2.6,0.7-3.9s1.2-2.7,2.2-4.2
			s1.9-2.9,3-4.3c1-1.4,2.3-3,3.8-5l54.3-72.6c3.5-4.8,6.5-8.2,8.8-10.4s5-3.2,8.2-3.2c10.4,0,15.6,5.9,15.6,17.8v79.3h4.4
			c5.3,0,9.5,0.7,12.6,2.2c3.2,1.4,4.8,4.6,4.8,9.4c0,4-1.3,6.8-3.9,8.7c-2.6,1.8-6.5,2.7-11.7,2.7h-6.2v19.1
			c0,5.3-1.2,9.2-3.5,11.7c-2.3,2.6-5.4,3.8-9.3,3.8c-3.8,0-6.9-1.3-9.3-3.9C374,326.8,372.8,322.9,372.8,317.8z M328.7,275.8h44
			v-59.5L328.7,275.8z"/>
	</g>
	<path class="st1" d="M328.7,256.3c0,5.4-4.5,9.6-9.6,9.6h-9.6l0.2,48.1c0,0.8-0.1,1.6-0.2,2.4v4.8c0,6.6-5.4,12-12,12h-4.8
		c-0.3,0-0.7,0-1,0c-0.4,0-0.8,0-1.3,0h-9.8h-7.2c-6.6,0-12-5.4-12-12V314v-19.2c0-5.3-4.3-9.6-9.6-9.6h-19.2
		c-5.3,0-9.6,4.3-9.6,9.6V314v7.2c0,6.6-5.4,12-12,12h-7.2h-9.6c-0.5,0-0.9,0-1.4-0.1c-0.4,0-0.7,0.1-1.1,0.1H187
		c-6.6,0-12-5.4-12-12v-33.6c0-0.3,0-0.6,0-0.8v-20.9h-9.6c-5.4,0-9.6-4.2-9.6-9.6c0-2.7,0.9-5.1,3-7.2l77-67.1
		c2.1-2.1,4.5-2.4,6.6-2.4s4.5,0.6,6.3,2.1l76.7,67.4C327.8,251.2,329,253.6,328.7,256.3z"/>
</g>
</svg>
